<svg width="16" height="16" viewBox="0 0 16 16" fill="none" xmlns="http://www.w3.org/2000/svg">
<g clip-path="url(#clip0_301_189)">
<path d="M7.99998 1.16669C9.15533 1.16669 10.0995 2.07099 10.1632 3.2104L10.1666 3.33335H13.6666C13.9428 3.33335 14.1666 3.55721 14.1666 3.83335C14.1666 4.08648 13.9785 4.29568 13.7345 4.32879L13.6666 4.33335H13.136L12.2826 13.0128C12.1941 13.9122 11.4656 14.6067 10.5751 14.663L10.458 14.6667H5.54193C4.63821 14.6667 3.87575 14.0097 3.73253 13.1289L3.7174 13.0128L2.86331 4.33335H2.33331C2.08018 4.33335 1.87099 4.14525 1.83788 3.9012L1.83331 3.83335C1.83331 3.58022 2.02142 3.37103 2.26547 3.33792L2.33331 3.33335H5.83331C5.83331 2.13674 6.80336 1.16669 7.99998 1.16669ZM12.1313 4.33335H3.86798L4.7126 12.9149C4.75176 13.3131 5.06687 13.6229 5.45721 13.6624L5.54193 13.6667H10.458C10.8581 13.6667 11.1973 13.3834 11.2748 12.9988L11.2874 12.9149L12.1313 4.33335ZM9.16665 6.16669C9.41978 6.16669 9.62897 6.35479 9.66208 6.59884L9.66665 6.66669V11.3334C9.66665 11.6095 9.44279 11.8334 9.16665 11.8334C8.91352 11.8334 8.70432 11.6453 8.67121 11.4012L8.66665 11.3334V6.66669C8.66665 6.39054 8.8905 6.16669 9.16665 6.16669ZM6.83331 6.16669C7.08644 6.16669 7.29564 6.35479 7.32875 6.59884L7.33331 6.66669V11.3334C7.33331 11.6095 7.10946 11.8334 6.83331 11.8334C6.58018 11.8334 6.37099 11.6453 6.33788 11.4012L6.33331 11.3334V6.66669C6.33331 6.39054 6.55717 6.16669 6.83331 6.16669ZM7.99998 2.16669C7.38786 2.16669 6.88585 2.63809 6.83718 3.23767L6.83331 3.33335H9.16665C9.16665 2.68902 8.64431 2.16669 7.99998 2.16669Z" fill="#0E6BE5"/>
<path d="M7.99998 1.16669C9.15533 1.16669 10.0995 2.07099 10.1632 3.2104L10.1666 3.33335H13.6666C13.9428 3.33335 14.1666 3.55721 14.1666 3.83335C14.1666 4.08648 13.9785 4.29568 13.7345 4.32879L13.6666 4.33335H13.136L12.2826 13.0128C12.1941 13.9122 11.4656 14.6067 10.5751 14.663L10.458 14.6667H5.54193C4.63821 14.6667 3.87575 14.0097 3.73253 13.1289L3.7174 13.0128L2.86331 4.33335H2.33331C2.08018 4.33335 1.87099 4.14525 1.83788 3.9012L1.83331 3.83335C1.83331 3.58022 2.02142 3.37103 2.26547 3.33792L2.33331 3.33335H5.83331C5.83331 2.13674 6.80336 1.16669 7.99998 1.16669ZM12.1313 4.33335H3.86798L4.7126 12.9149C4.75176 13.3131 5.06687 13.6229 5.45721 13.6624L5.54193 13.6667H10.458C10.8581 13.6667 11.1973 13.3834 11.2748 12.9988L11.2874 12.9149L12.1313 4.33335ZM9.16665 6.16669C9.41978 6.16669 9.62897 6.35479 9.66208 6.59884L9.66665 6.66669V11.3334C9.66665 11.6095 9.44279 11.8334 9.16665 11.8334C8.91352 11.8334 8.70432 11.6453 8.67121 11.4012L8.66665 11.3334V6.66669C8.66665 6.39054 8.8905 6.16669 9.16665 6.16669ZM6.83331 6.16669C7.08644 6.16669 7.29564 6.35479 7.32875 6.59884L7.33331 6.66669V11.3334C7.33331 11.6095 7.10946 11.8334 6.83331 11.8334C6.58018 11.8334 6.37099 11.6453 6.33788 11.4012L6.33331 11.3334V6.66669C6.33331 6.39054 6.55717 6.16669 6.83331 6.16669ZM7.99998 2.16669C7.38786 2.16669 6.88585 2.63809 6.83718 3.23767L6.83331 3.33335H9.16665C9.16665 2.68902 8.64431 2.16669 7.99998 2.16669Z" fill="#565656" fill-opacity="0.76"/>
<path d="M7.99998 1.16669C9.15533 1.16669 10.0995 2.07099 10.1632 3.2104L10.1666 3.33335H13.6666C13.9428 3.33335 14.1666 3.55721 14.1666 3.83335C14.1666 4.08648 13.9785 4.29568 13.7345 4.32879L13.6666 4.33335H13.136L12.2826 13.0128C12.1941 13.9122 11.4656 14.6067 10.5751 14.663L10.458 14.6667H5.54193C4.63821 14.6667 3.87575 14.0097 3.73253 13.1289L3.7174 13.0128L2.86331 4.33335H2.33331C2.08018 4.33335 1.87099 4.14525 1.83788 3.9012L1.83331 3.83335C1.83331 3.58022 2.02142 3.37103 2.26547 3.33792L2.33331 3.33335H5.83331C5.83331 2.13674 6.80336 1.16669 7.99998 1.16669ZM12.1313 4.33335H3.86798L4.7126 12.9149C4.75176 13.3131 5.06687 13.6229 5.45721 13.6624L5.54193 13.6667H10.458C10.8581 13.6667 11.1973 13.3834 11.2748 12.9988L11.2874 12.9149L12.1313 4.33335ZM9.16665 6.16669C9.41978 6.16669 9.62897 6.35479 9.66208 6.59884L9.66665 6.66669V11.3334C9.66665 11.6095 9.44279 11.8334 9.16665 11.8334C8.91352 11.8334 8.70432 11.6453 8.67121 11.4012L8.66665 11.3334V6.66669C8.66665 6.39054 8.8905 6.16669 9.16665 6.16669ZM6.83331 6.16669C7.08644 6.16669 7.29564 6.35479 7.32875 6.59884L7.33331 6.66669V11.3334C7.33331 11.6095 7.10946 11.8334 6.83331 11.8334C6.58018 11.8334 6.37099 11.6453 6.33788 11.4012L6.33331 11.3334V6.66669C6.33331 6.39054 6.55717 6.16669 6.83331 6.16669ZM7.99998 2.16669C7.38786 2.16669 6.88585 2.63809 6.83718 3.23767L6.83331 3.33335H9.16665C9.16665 2.68902 8.64431 2.16669 7.99998 2.16669Z" fill="#111111"/>
</g>
<defs>
<clipPath id="clip0_301_189">
<rect width="16" height="16" fill="white"/>
</clipPath>
</defs>
</svg>
